<svg width="435" height="438" viewBox="0 0 435 438" fill="none" xmlns="http://www.w3.org/2000/svg">
<path d="M203.294 60.6583C155.676 62.169 86.1382 4.38599 78.5798 9.67332C71.0213 14.9607 112.937 112.443 108.436 139.968C103.934 167.493 -1.12464 180.756 0.00912552 190.953C1.1429 201.15 82.0149 207.132 118.362 235.736C143.192 255.276 155.406 288.261 170.145 276.176C184.884 264.091 167.186 241.126 138.089 219.461C118.815 205.11 85.8128 190.953 85.8128 190.953C85.8128 190.953 132.171 178.528 138.089 147.458C144.007 116.388 119.348 62.1396 119.348 62.1396C119.348 62.1396 166.971 96.5366 204.806 96.5366C242.641 96.5366 287.949 64.8126 287.949 64.8126C287.949 64.8126 269.431 121.84 285.682 166.027C301.932 210.214 346.527 218.523 346.527 218.523C346.527 218.523 291.018 224.188 241.51 256.29C184.447 293.29 149.868 355.26 174.433 369.612C193.816 380.936 207.542 325 263.052 281.593C309.713 245.106 433.45 238.162 434.961 228.342C436.473 218.523 335.341 199.64 317.805 155.83C300.27 112.021 337.835 4.76366 328.765 0.231658C319.695 -4.30034 250.913 59.1476 203.294 60.6583Z" fill="#FECD48"/>
<path d="M247.475 357.431C266.797 331.931 293.25 318.713 285.316 292.452C272.272 292.145 246.544 316.068 229.759 339.249C212.975 362.431 185.978 402.058 198.266 415.384C212.475 430.793 227.395 383.931 247.475 357.431Z" fill="#FECD48"/>
<path d="M262.867 405.318C277.591 379.669 293.74 346.896 292.121 337.397C279.966 327.422 258.473 357.82 248.143 374.444C237.813 391.069 216.794 427.847 223.919 435.241C231.044 442.635 248.143 430.967 262.867 405.318Z" fill="#FECD48"/>
<mask id="path-4-outside-1_2004_2" maskUnits="userSpaceOnUse" x="372" y="397" width="59" height="33" fill="black">
<rect fill="white" x="372" y="397" width="59" height="33"/>
<path d="M381.457 428.781V402.062H373.098V401.867L374.68 398.508H393.723V398.703L392.141 402.062H385.363V427.023L381.652 428.781H381.457ZM394.797 428.781V407.883C394.797 405.07 395.676 402.759 397.434 400.949C399.283 399.061 401.691 398.117 404.66 398.117C407.342 398.117 409.628 399.061 411.516 400.949C411.984 401.418 412.336 401.874 412.57 402.316C412.87 401.861 413.234 401.424 413.664 401.008C415.63 399.081 417.902 398.117 420.48 398.117C423.397 398.117 425.806 399.061 427.707 400.949C429.465 402.694 430.344 405.005 430.344 407.883V427.023L426.633 428.781H426.438V407.883C426.438 406.138 425.969 404.725 425.031 403.645C423.872 402.303 422.355 401.633 420.48 401.633C418.605 401.633 417.089 402.303 415.93 403.645C414.992 404.725 414.523 406.138 414.523 407.883V427.023L410.812 428.781H410.617V407.883C410.617 406.138 410.148 404.725 409.211 403.645C408.052 402.303 406.535 401.633 404.66 401.633C402.785 401.633 401.268 402.303 400.109 403.645C399.172 404.725 398.703 406.138 398.703 407.883V427.023L394.992 428.781H394.797Z"/>
</mask>
<path d="M381.457 428.781V402.062H373.098V401.867L374.68 398.508H393.723V398.703L392.141 402.062H385.363V427.023L381.652 428.781H381.457ZM394.797 428.781V407.883C394.797 405.07 395.676 402.759 397.434 400.949C399.283 399.061 401.691 398.117 404.66 398.117C407.342 398.117 409.628 399.061 411.516 400.949C411.984 401.418 412.336 401.874 412.57 402.316C412.87 401.861 413.234 401.424 413.664 401.008C415.63 399.081 417.902 398.117 420.48 398.117C423.397 398.117 425.806 399.061 427.707 400.949C429.465 402.694 430.344 405.005 430.344 407.883V427.023L426.633 428.781H426.438V407.883C426.438 406.138 425.969 404.725 425.031 403.645C423.872 402.303 422.355 401.633 420.48 401.633C418.605 401.633 417.089 402.303 415.93 403.645C414.992 404.725 414.523 406.138 414.523 407.883V427.023L410.812 428.781H410.617V407.883C410.617 406.138 410.148 404.725 409.211 403.645C408.052 402.303 406.535 401.633 404.66 401.633C402.785 401.633 401.268 402.303 400.109 403.645C399.172 404.725 398.703 406.138 398.703 407.883V427.023L394.992 428.781H394.797Z" fill="#FECD48"/>
<path d="M381.457 428.781H380.957V429.281H381.457V428.781ZM381.457 402.062H381.957V401.562H381.457V402.062ZM373.098 402.062H372.598V402.562H373.098V402.062ZM373.098 401.867L372.645 401.654L372.598 401.755V401.867H373.098ZM374.68 398.508V398.008H374.362L374.227 398.295L374.68 398.508ZM393.723 398.508H394.223V398.008H393.723V398.508ZM393.723 398.703L394.175 398.916L394.223 398.815V398.703H393.723ZM392.141 402.062V402.562H392.458L392.593 402.276L392.141 402.062ZM385.363 402.062V401.562H384.863V402.062H385.363ZM385.363 427.023L385.577 427.475L385.863 427.34V427.023H385.363ZM381.652 428.781V429.281H381.765L381.866 429.233L381.652 428.781ZM381.457 428.781H381.957V402.062H381.457H380.957V428.781H381.457ZM381.457 402.062V401.562H373.098V402.062V402.562H381.457V402.062ZM373.098 402.062H373.598V401.867H373.098H372.598V402.062H373.098ZM373.098 401.867L373.55 402.08L375.132 398.721L374.68 398.508L374.227 398.295L372.645 401.654L373.098 401.867ZM374.68 398.508V399.008H393.723V398.508V398.008H374.68V398.508ZM393.723 398.508H393.223V398.703H393.723H394.223V398.508H393.723ZM393.723 398.703L393.27 398.49L391.688 401.849L392.141 402.062L392.593 402.276L394.175 398.916L393.723 398.703ZM392.141 402.062V401.562H385.363V402.062V402.562H392.141V402.062ZM385.363 402.062H384.863V427.023H385.363H385.863V402.062H385.363ZM385.363 427.023L385.149 426.572L381.438 428.329L381.652 428.781L381.866 429.233L385.577 427.475L385.363 427.023ZM381.652 428.781V428.281H381.457V428.781V429.281H381.652V428.781ZM394.797 428.781H394.297V429.281H394.797V428.781ZM397.434 400.949L397.076 400.599L397.075 400.601L397.434 400.949ZM411.516 400.949L411.162 401.303L411.516 400.949ZM412.57 402.316L412.128 402.55L412.524 403.297L412.988 402.591L412.57 402.316ZM413.664 401.008L414.012 401.367L414.014 401.365L413.664 401.008ZM427.707 400.949L427.355 401.304L427.355 401.304L427.707 400.949ZM430.344 427.023L430.558 427.475L430.844 427.34V427.023H430.344ZM426.633 428.781V429.281H426.745L426.847 429.233L426.633 428.781ZM426.438 428.781H425.938V429.281H426.438V428.781ZM425.031 403.645L424.653 403.971L424.654 403.972L425.031 403.645ZM415.93 403.645L416.307 403.972L416.308 403.971L415.93 403.645ZM414.523 427.023L414.737 427.475L415.023 427.34V427.023H414.523ZM410.812 428.781V429.281H410.925L411.027 429.233L410.812 428.781ZM410.617 428.781H410.117V429.281H410.617V428.781ZM409.211 403.645L408.833 403.971L408.833 403.972L409.211 403.645ZM400.109 403.645L400.487 403.972L400.488 403.971L400.109 403.645ZM398.703 427.023L398.917 427.475L399.203 427.34V427.023H398.703ZM394.992 428.781V429.281H395.105L395.206 429.233L394.992 428.781ZM394.797 428.781H395.297V407.883H394.797H394.297V428.781H394.797ZM394.797 407.883H395.297C395.297 405.184 396.136 403.003 397.792 401.298L397.434 400.949L397.075 400.601C395.216 402.515 394.297 404.956 394.297 407.883H394.797ZM397.434 400.949L397.791 401.299C399.534 399.519 401.808 398.617 404.66 398.617V398.117V397.617C401.575 397.617 399.031 398.603 397.076 400.599L397.434 400.949ZM404.66 398.117V398.617C407.211 398.617 409.368 399.509 411.162 401.303L411.516 400.949L411.869 400.596C409.887 398.613 407.474 397.617 404.66 397.617V398.117ZM411.516 400.949L411.162 401.303C411.606 401.747 411.924 402.163 412.128 402.55L412.57 402.316L413.012 402.082C412.748 401.584 412.363 401.089 411.869 400.596L411.516 400.949ZM412.57 402.316L412.988 402.591C413.266 402.169 413.606 401.76 414.012 401.367L413.664 401.008L413.316 400.649C412.863 401.089 412.474 401.553 412.152 402.042L412.57 402.316ZM413.664 401.008L414.014 401.365C415.894 399.523 418.043 398.617 420.48 398.617V398.117V397.617C417.762 397.617 415.367 398.639 413.314 400.651L413.664 401.008ZM420.48 398.117V398.617C423.278 398.617 425.556 399.518 427.355 401.304L427.707 400.949L428.059 400.594C426.056 398.605 423.516 397.617 420.48 397.617V398.117ZM427.707 400.949L427.355 401.304C429.003 402.94 429.844 405.115 429.844 407.883H430.344H430.844C430.844 404.895 429.927 402.448 428.059 400.594L427.707 400.949ZM430.344 407.883H429.844V427.023H430.344H430.844V407.883H430.344ZM430.344 427.023L430.13 426.572L426.419 428.329L426.633 428.781L426.847 429.233L430.558 427.475L430.344 427.023ZM426.633 428.781V428.281H426.438V428.781V429.281H426.633V428.781ZM426.438 428.781H426.938V407.883H426.438H425.938V428.781H426.438ZM426.438 407.883H426.938C426.938 406.045 426.442 404.507 425.409 403.317L425.031 403.645L424.654 403.972C425.496 404.943 425.938 406.231 425.938 407.883H426.438ZM425.031 403.645L425.41 403.318C424.15 401.86 422.491 401.133 420.48 401.133V401.633V402.133C422.22 402.133 423.595 402.747 424.653 403.971L425.031 403.645ZM420.48 401.633V401.133C418.47 401.133 416.811 401.86 415.551 403.318L415.93 403.645L416.308 403.971C417.366 402.747 418.741 402.133 420.48 402.133V401.633ZM415.93 403.645L415.552 403.317C414.519 404.507 414.023 406.045 414.023 407.883H414.523H415.023C415.023 406.231 415.465 404.943 416.307 403.972L415.93 403.645ZM414.523 407.883H414.023V427.023H414.523H415.023V407.883H414.523ZM414.523 427.023L414.309 426.572L410.598 428.329L410.812 428.781L411.027 429.233L414.737 427.475L414.523 427.023ZM410.812 428.781V428.281H410.617V428.781V429.281H410.812V428.781ZM410.617 428.781H411.117V407.883H410.617H410.117V428.781H410.617ZM410.617 407.883H411.117C411.117 406.045 410.621 404.507 409.589 403.317L409.211 403.645L408.833 403.972C409.676 404.943 410.117 406.231 410.117 407.883H410.617ZM409.211 403.645L409.589 403.318C408.329 401.86 406.671 401.133 404.66 401.133V401.633V402.133C406.399 402.133 407.775 402.747 408.833 403.971L409.211 403.645ZM404.66 401.633V401.133C402.649 401.133 400.991 401.86 399.731 403.318L400.109 403.645L400.488 403.971C401.546 402.747 402.921 402.133 404.66 402.133V401.633ZM400.109 403.645L399.732 403.317C398.699 404.507 398.203 406.045 398.203 407.883H398.703H399.203C399.203 406.231 399.645 404.943 400.487 403.972L400.109 403.645ZM398.703 407.883H398.203V427.023H398.703H399.203V407.883H398.703ZM398.703 427.023L398.489 426.572L394.778 428.329L394.992 428.781L395.206 429.233L398.917 427.475L398.703 427.023ZM394.992 428.781V428.281H394.797V428.781V429.281H394.992V428.781Z" fill="#FECD48" mask="url(#path-4-outside-1_2004_2)"/>
</svg>
