<svg width="441" height="440" viewBox="0 0 441 440" fill="none" xmlns="http://www.w3.org/2000/svg">
<path d="M206.109 61.4982C157.832 63.0298 87.3309 4.44671 79.6678 9.80726C72.0047 15.1678 114.501 114 109.937 141.906C105.373 169.812 -1.14023 183.259 0.00923641 193.597C1.1587 203.935 83.1505 210 120.001 239C145.174 258.811 157.558 292.253 172.501 280C187.444 267.747 169.501 244.465 140.001 222.5C120.46 207.95 87.001 193.597 87.001 193.597C87.001 193.597 134.001 181 140.001 149.5C146.001 118 121.001 63 121.001 63C121.001 63 169.283 97.8733 207.642 97.8733C246.001 97.8733 291.936 65.71 291.936 65.71C291.936 65.71 273.162 123.527 289.637 168.326C306.113 213.125 351.325 221.549 351.325 221.549C351.325 221.549 295.048 227.292 244.854 259.838C187.001 297.351 151.943 360.179 176.848 374.729C196.5 386.21 210.416 329.5 266.694 285.492C314.001 248.5 439.451 241.459 440.984 231.504C442.517 221.549 339.984 202.404 322.206 157.988C304.427 113.572 342.513 4.82962 333.317 0.234865C324.121 -4.35989 254.387 59.9666 206.109 61.4982Z" fill="#FECD48"/>
<path d="M246 360C265.322 334.5 291.775 321.282 283.841 295.021C270.797 294.714 245.069 318.637 228.284 341.818C211.5 365 184.503 404.627 196.791 417.953C211 433.362 225.92 386.5 246 360Z" fill="#FECD48"/>
<path d="M261.532 407.887C276.307 382.238 292.512 349.465 290.887 339.966C278.69 329.991 257.122 360.389 246.757 377.014C236.391 393.638 215.3 430.416 222.449 437.81C229.598 445.204 246.757 433.536 261.532 407.887Z" fill="#FECD48"/>
</svg>
