<svg width="1100" height="550" viewBox="0 0 1100 550" fill="none" xmlns="http://www.w3.org/2000/svg">
<g clip-path="url(#clip0_3_70)">
<path d="M0 0C363 0 726 0 1100 0C1100 181.5 1100 363 1100 550C737 550 374 550 0 550C0 368.5 0 187 0 0Z" fill="url(#paint0_linear_3_70)"/>
<path d="M591.031 258.125C591.031 258.125 594.195 256.602 600.523 253.555H601.109C605.328 261.992 611.07 266.211 618.336 266.211C623.336 266.211 627.809 263.965 631.754 259.473C634.605 256.191 636.031 252.031 636.031 246.992C636.031 243.086 634.781 239.805 632.281 237.148C629.391 234.062 625.094 231.914 619.391 230.703C613.453 229.492 608.277 227.305 603.863 224.141C598.473 220.234 595.777 215.078 595.777 208.672C595.777 201.641 598.297 195.859 603.336 191.328C607.711 187.344 613.297 185.352 620.094 185.352C628.844 185.352 635.641 189.805 640.484 198.711L631.227 203.105H630.641C628.023 197.91 624.508 195.312 620.094 195.312C616.344 195.352 613.316 196.543 611.012 198.887C608.668 201.27 607.496 204.238 607.496 207.793C607.496 210.918 608.531 213.379 610.602 215.176C613.219 217.441 617.262 219.121 622.73 220.215C630.035 221.621 636.051 224.668 640.777 229.355C645.504 234.082 647.867 240.078 647.867 247.344C647.867 254.766 645.055 261.406 639.43 267.266C633.844 273.203 626.812 276.172 618.336 276.172C606.656 276.172 597.555 270.156 591.031 258.125ZM653.445 277.344V230.762C653.445 219.395 655.32 210.273 659.07 203.398C665.633 191.367 674.734 185.352 686.375 185.352C696.102 185.352 703.777 188.945 709.402 196.133C714.051 202.07 716.375 208.73 716.375 216.113C716.375 222.832 714.012 229.102 709.285 234.922C703.426 242.109 694.812 245.703 683.445 245.703H665.164V272.07L654.031 277.344H653.445ZM665.164 235.742H683.445C690.789 235.742 696.043 233.945 699.207 230.352C702.84 226.211 704.656 221.465 704.656 216.113C704.656 209.785 702.781 204.668 699.031 200.762C695.516 197.129 691.297 195.312 686.375 195.312C679.188 195.312 673.445 199.531 669.148 207.969C666.492 213.203 665.164 220.801 665.164 230.762V235.742ZM721.953 277.344V230.762C721.953 219.395 723.828 210.273 727.578 203.398C734.141 191.367 743.242 185.352 754.883 185.352C766.562 185.352 775.664 191.367 782.188 203.398C785.938 210.312 787.812 219.434 787.812 230.762C787.812 241.934 785.938 251.055 782.188 258.125C776.914 268.047 770.039 274.453 761.562 277.344H760.977L756.582 268.613C763.535 265.332 768.711 260.312 772.109 253.555C774.297 249.219 775.586 243.281 775.977 235.742H733.672V272.07L722.539 277.344H721.953ZM733.789 225.781H775.977C775.586 218.281 774.297 212.344 772.109 207.969C767.891 199.531 762.148 195.312 754.883 195.312C747.656 195.312 741.914 199.531 737.656 207.969C735.469 212.344 734.18 218.281 733.789 225.781ZM806.867 235.742H825.148C832.492 235.742 837.746 233.945 840.91 230.352C844.543 226.211 846.359 221.465 846.359 216.113C846.359 209.785 844.484 204.668 840.734 200.762C837.219 197.129 833 195.312 828.078 195.312C820.891 195.312 815.148 199.531 810.852 207.969C808.195 213.203 806.867 220.801 806.867 230.762V235.742ZM795.148 277.344V230.762C795.148 219.395 797.023 210.273 800.773 203.398C807.336 191.367 816.438 185.352 828.078 185.352C837.805 185.352 845.48 188.945 851.105 196.133C855.754 202.07 858.078 208.73 858.078 216.113C858.078 222.832 855.715 229.102 850.988 234.922C847.941 238.672 844.152 241.445 839.621 243.242L860.07 272.48L849.758 277.344H849.172L827.082 245.703H806.867V272.07L795.734 277.344H795.148ZM868.578 277.344V189.453L879.711 184.18H880.297V228.301L912.113 184.18H912.699L923.012 189.043L897.289 223.789C908.031 223.789 916.098 227.324 921.488 234.395C925.355 239.473 927.289 245.215 927.289 251.621C927.289 258.262 925.043 264.023 920.551 268.906C916.605 273.281 912.094 276.094 907.016 277.344H906.43L902.035 268.613C905.59 267.871 908.402 266.445 910.473 264.336C913.871 260.898 915.57 256.66 915.57 251.621C915.57 246.113 914.086 241.914 911.117 239.023C907.523 235.508 902.914 233.75 897.289 233.75C892.172 233.75 887.914 235.762 884.516 239.785C881.703 243.105 880.297 247.344 880.297 252.5V272.07L869.164 277.344H868.578Z" fill="white"/>
<path d="M609.914 391.562L609.953 337.656H605.227C602.128 337.656 600.201 339.18 599.445 342.227H599.055L593.195 339.453C594.732 333.828 598.742 331.016 605.227 331.016H634.445V331.406L631.516 337.656H617.766L617.727 388.047L610.305 391.562H609.914ZM657.812 375.273C657.344 377.747 656.602 379.909 655.586 381.758C652.279 387.773 647.721 390.781 641.914 390.781C636.185 390.781 631.641 387.773 628.281 381.758C626.406 378.398 625.469 373.984 625.469 368.516C625.469 363.125 626.406 358.711 628.281 355.273C631.536 349.258 636.081 346.25 641.914 346.25C647.721 346.25 652.266 349.245 655.547 355.234C656.354 356.719 657.005 358.451 657.5 360.43L634.844 378.867C636.589 382.383 638.971 384.141 641.992 384.141C644.935 384.141 647.253 382.422 648.945 378.984L657.422 375.273H657.812ZM633.359 371.523L648.945 358.047C647.253 354.609 644.909 352.891 641.914 352.891C638.971 352.891 636.628 354.609 634.883 358.047C633.815 360.182 633.281 363.672 633.281 368.516C633.281 369.583 633.307 370.586 633.359 371.523ZM686.648 391.562V368.516C686.648 363.75 686.115 360.26 685.047 358.047C683.38 354.609 681.036 352.891 678.016 352.891C675.073 352.891 672.729 354.609 670.984 358.047C669.891 360.26 669.344 363.75 669.344 368.516C669.344 372.786 669.891 376.276 670.984 378.984C672.365 382.37 674.63 384.622 677.781 385.742L674.852 391.562H674.461C669.982 389.792 666.609 386.523 664.344 381.758C662.469 377.826 661.531 373.411 661.531 368.516C661.531 363.151 662.469 358.737 664.344 355.273C667.625 349.258 672.182 346.25 678.016 346.25C683.198 346.25 687.378 348.646 690.555 353.438C693.732 348.646 697.911 346.25 703.094 346.25C708.927 346.25 713.484 349.258 716.766 355.273C718.641 358.737 719.578 363.151 719.578 368.516C719.578 373.516 718.641 377.93 716.766 381.758C714.5 386.523 711.128 389.792 706.648 391.562H706.258L703.328 385.742C706.479 384.622 708.745 382.37 710.125 378.984C711.219 376.276 711.766 372.786 711.766 368.516C711.766 363.75 711.219 360.26 710.125 358.047C708.406 354.609 706.062 352.891 703.094 352.891C700.125 352.891 697.781 354.609 696.062 358.047C694.995 360.208 694.461 363.698 694.461 368.516V388.047L687.039 391.562H686.648ZM733.492 358.086C732.451 360.195 731.93 363.672 731.93 368.516C731.93 373.359 732.464 376.849 733.531 378.984C735.25 382.422 737.594 384.141 740.562 384.141C743.531 384.141 745.875 382.422 747.594 378.984C748.688 376.823 749.234 373.333 749.234 368.516C749.234 363.698 748.688 360.208 747.594 358.047C745.901 354.609 743.557 352.891 740.562 352.891C737.568 352.891 735.211 354.622 733.492 358.086ZM724.078 407.578V368.516C724.078 363.099 725.016 358.685 726.891 355.273C730.198 349.258 734.755 346.25 740.562 346.25C746.292 346.25 750.836 349.258 754.195 355.273C756.07 358.633 757.008 363.047 757.008 368.516C757.008 373.932 756.083 378.346 754.234 381.758C750.953 387.773 746.396 390.781 740.562 390.781C737.177 390.781 734.286 389.414 731.891 386.68V404.062L724.469 407.578H724.078ZM763.305 389.375C762.393 388.438 761.938 387.318 761.938 386.016C761.938 384.688 762.393 383.555 763.305 382.617C764.216 381.68 765.323 381.211 766.625 381.211C767.927 381.211 769.034 381.68 769.945 382.617C770.857 383.555 771.312 384.688 771.312 386.016C771.312 387.318 770.857 388.438 769.945 389.375C769.034 390.312 767.927 390.781 766.625 390.781C765.323 390.781 764.216 390.312 763.305 389.375ZM801.406 391.562V332.969L808.828 329.453H809.219V388.047L801.797 391.562H801.406ZM840.008 391.562V368.516C840.008 363.75 839.474 360.26 838.406 358.047C836.74 354.609 834.396 352.891 831.375 352.891C828.432 352.891 826.089 354.609 824.344 358.047C823.25 360.26 822.703 363.75 822.703 368.516C822.703 372.786 823.25 376.276 824.344 378.984C825.724 382.37 827.99 384.622 831.141 385.742L828.211 391.562H827.82C823.341 389.792 819.969 386.523 817.703 381.758C815.828 377.826 814.891 373.411 814.891 368.516C814.891 363.151 815.828 358.737 817.703 355.273C820.984 349.258 825.542 346.25 831.375 346.25C836.557 346.25 840.737 348.646 843.914 353.438C847.091 348.646 851.271 346.25 856.453 346.25C862.286 346.25 866.844 349.258 870.125 355.273C872 358.737 872.938 363.151 872.938 368.516C872.938 373.516 872 377.93 870.125 381.758C867.859 386.523 864.487 389.792 860.008 391.562H859.617L856.688 385.742C859.839 384.622 862.104 382.37 863.484 378.984C864.578 376.276 865.125 372.786 865.125 368.516C865.125 363.75 864.578 360.26 863.484 358.047C861.766 354.609 859.422 352.891 856.453 352.891C853.484 352.891 851.141 354.609 849.422 358.047C848.354 360.208 847.82 363.698 847.82 368.516V388.047L840.398 391.562H840.008ZM886.031 358.086C884.99 360.195 884.469 363.672 884.469 368.516C884.469 373.359 885.003 376.849 886.07 378.984C887.789 382.422 890.133 384.141 893.102 384.141C896.07 384.141 898.414 382.422 900.133 378.984C901.227 376.823 901.773 373.333 901.773 368.516C901.773 363.698 901.227 360.208 900.133 358.047C898.44 354.609 896.096 352.891 893.102 352.891C890.107 352.891 887.75 354.622 886.031 358.086ZM876.656 368.516C876.656 363.099 877.594 358.685 879.469 355.273C882.724 349.258 887.268 346.25 893.102 346.25C898.935 346.25 903.479 349.258 906.734 355.273C908.635 358.737 909.586 363.151 909.586 368.516V384.531C909.586 389.87 908.661 394.284 906.812 397.773C903.583 403.789 899.026 406.797 893.141 406.797H883.727V406.406L886.695 400.156H893.141C896.422 400.156 898.766 398.438 900.172 395C901.135 392.63 901.617 389.922 901.617 386.875C899.065 389.479 896.227 390.781 893.102 390.781C887.372 390.781 882.828 387.773 879.469 381.758C877.594 378.398 876.656 373.984 876.656 368.516ZM916.664 389.375C915.753 388.438 915.297 387.318 915.297 386.016C915.297 384.688 915.753 383.555 916.664 382.617C917.576 381.68 918.682 381.211 919.984 381.211C921.286 381.211 922.393 381.68 923.305 382.617C924.216 383.555 924.672 384.688 924.672 386.016C924.672 387.318 924.216 388.438 923.305 389.375C922.393 390.312 921.286 390.781 919.984 390.781C918.682 390.781 917.576 390.312 916.664 389.375Z" fill="white"/>
<path d="M330.109 116.498C281.832 118.03 211.331 59.4467 203.668 64.8073C196.005 70.1678 238.501 169 233.937 196.906C229.373 224.812 122.86 238.259 124.009 248.597C125.159 258.935 207.15 265 244.001 294C269.174 313.811 281.558 347.253 296.501 335C311.444 322.747 293.501 299.465 264.001 277.5C244.46 262.95 211.001 248.597 211.001 248.597C211.001 248.597 258.001 236 264.001 204.5C270.001 173 245.001 118 245.001 118C245.001 118 293.283 152.873 331.642 152.873C370.001 152.873 415.936 120.71 415.936 120.71C415.936 120.71 397.162 178.527 413.637 223.326C430.113 268.125 475.325 276.549 475.325 276.549C475.325 276.549 419.048 282.292 368.854 314.838C311.001 352.351 275.943 415.179 300.848 429.729C320.5 441.21 334.416 384.5 390.694 340.492C438.001 303.5 563.451 296.459 564.984 286.504C566.517 276.549 463.984 257.404 446.206 212.988C428.427 168.572 466.513 59.8296 457.317 55.2349C448.121 50.6401 378.387 114.967 330.109 116.498Z" fill="#FECD48"/>
<path d="M370 415C389.322 389.5 415.775 376.282 407.841 350.021C394.797 349.714 369.069 373.637 352.284 396.818C335.5 420 308.503 459.627 320.791 472.953C335 488.362 349.92 441.5 370 415Z" fill="#FECD48"/>
<path d="M385.532 462.887C400.307 437.238 416.512 404.465 414.887 394.966C402.69 384.991 381.122 415.389 370.757 432.014C360.391 448.638 339.3 485.416 346.449 492.81C353.598 500.204 370.757 488.536 385.532 462.887Z" fill="#FECD48"/>
</g>
<defs>
<linearGradient id="paint0_linear_3_70" x1="825" y1="550" x2="275" y2="0" gradientUnits="userSpaceOnUse">
<stop stop-color="#764BA2"/>
<stop offset="1" stop-color="#3a4784"/>
</linearGradient>
<clipPath id="clip0_3_70">
<rect width="1100" height="550" fill="white"/>
</clipPath>
</defs>
</svg>
